<?xml version="1.0" encoding="utf-8"?>
<!-- Generator: Adobe Illustrator 23.0.2, SVG Export Plug-In . SVG Version: 6.00 Build 0)  -->
<svg version="1.1" id="Layer_1" xmlns="http://www.w3.org/2000/svg" xmlns:xlink="http://www.w3.org/1999/xlink" x="0px" y="0px"
	 viewBox="0 0 236.75 236.75" style="enable-background:new 0 0 236.75 236.75;" xml:space="preserve">
<style type="text/css">
	.st0{fill:#00B5E6;}
	.st1{fill:#fff;}
	.st2{fill:#fff;}
	.st3{fill:#fff;}
	.st4{fill:#00B5E6;}
	.st5{fill:#00B5E6;}
	.st6{fill:#00B5E6;}
	.st7{fill:#00B5E6;}
	.st8{fill:#00B5E6;}
	.st9{fill:#00B5E6;}
</style>
<g>
	<path class="st0" d="M23.38,132.38c0-8.67,0-17.33,0-26c0.6-1.25,1.51-2.43,1.75-3.75c7.24-39.46,38.16-70.37,77.5-77.5
		c1.31-0.24,2.5-1.16,3.75-1.76c8.33,0,16.67,0,25,0c1.65,0.58,3.26,1.41,4.96,1.7c37.64,6.43,68.57,35.7,77.08,72.94
		c0.42,1.84,1.3,3.58,1.96,5.36c0,11,0,22,0,33c-0.65,1.62-1.47,3.19-1.92,4.86c-10.22,38.18-34.4,62.3-72.66,72.3
		c-1.84,0.48-3.61,1.23-5.42,1.85c-11,0-22,0-33,0c-1.74-0.72-3.42-1.69-5.23-2.13c-36.66-8.79-65.64-39.57-72.02-76.52
		C24.86,135.22,23.97,133.83,23.38,132.38z M185.22,179.04c23.25-23.91,32.2-66.54,11.97-102.61
		c-20.15-35.95-62.24-53.28-101.91-42.02C55.64,45.67,29.79,82,31.16,124.52c1.26,38.89,31.39,73.8,70,82.06
		c32.51,6.96,67.06-7.06,78.86-22.87c-11.1-4.32-14.56-16.67-23.84-24.04c0,12.65,0,24.55,0,36.68c-4.37,0-8.25,0-12.32,0
		c0-46.9,0-93.44,0-140.21c4.2,0,8.1,0,12.5,0c0,32.56,0,64.76,0,98.55c5.56-6.31,10.12-11.48,14.68-16.65
		c3.84-4.35,7.46-5.12,13.7-2.75c-5.55,7.49-11.05,14.92-16.55,22.35C174,164.93,179.47,171.81,185.22,179.04z"/>
	<path class="st1" d="M106.38,23.38c-1.25,0.6-2.44,1.52-3.75,1.76c-39.34,7.12-70.26,38.04-77.5,77.5
		c-0.24,1.31-1.15,2.5-1.75,3.75c0-27.58,0-55.17,0-83C51.04,23.38,78.71,23.38,106.38,23.38z"/>
	<path class="st1" d="M215.38,103.38c-0.66-1.78-1.54-3.52-1.96-5.36c-8.51-37.24-39.45-66.51-77.08-72.94
		c-1.7-0.29-3.31-1.12-4.96-1.7c28,0,56,0,84,0C215.38,50.04,215.38,76.71,215.38,103.38z"/>
	<path class="st2" d="M23.38,132.38c0.59,1.45,1.48,2.85,1.74,4.35c6.39,36.94,35.36,67.73,72.02,76.52
		c1.81,0.43,3.49,1.41,5.23,2.13c-26.25,0-52.5,0-79,0C23.38,187.71,23.38,160.04,23.38,132.38z"/>
	<path class="st1" d="M135.38,215.38c1.8-0.62,3.58-1.37,5.42-1.85c38.27-9.99,62.44-34.11,72.66-72.3
		c0.45-1.67,1.27-3.24,1.92-4.86c0,26.33,0,52.67,0,79C188.71,215.38,162.04,215.38,135.38,215.38z"/>
	<path class="st3" d="M185.22,179.04c-5.75-7.23-11.22-14.12-17.02-21.41c5.5-7.42,11-14.85,16.55-22.35
		c-6.25-2.37-9.87-1.6-13.7,2.75c-4.56,5.17-9.11,10.33-14.68,16.65c0-33.8,0-65.99,0-98.55c-4.41,0-8.3,0-12.5,0
		c0,46.77,0,93.31,0,140.21c4.07,0,7.94,0,12.32,0c0-12.13,0-24.04,0-36.68c9.28,7.37,12.74,19.72,23.84,24.04
		c-11.8,15.81-46.35,29.83-78.86,22.87c-38.61-8.26-68.74-43.17-70-82.06C29.79,82,55.64,45.67,95.28,34.41
		c39.67-11.27,81.76,6.07,101.91,42.02C217.42,112.51,208.47,155.14,185.22,179.04z M138.34,196.43c0-47.15,0-93.68,0-140.24
		c-3.82,0-7.21,0-11.1,0c0,26.26,0,52.11,0,78.24c-2.2-0.73-3.86-1.28-5.58-1.86c-0.99,7.92-0.91,7.86,4.1,13.56
		c0.98,1.12,1.48,2.92,1.61,4.46c0.25,2.98-0.24,6.03,0.14,8.98c0.73,5.7-2.35,9.08-6.6,11.83c-7.28,4.71-17.75,3.02-22.5-3.55
		c-5.22-7.21-4.75-17.96,1.87-22.49c5.29-3.62,3.85-7.82,3.45-12.5c-14.54,4.14-21.57,17.18-17.54,31.88
		c1.95,7.12,6.31,12.38,12.67,16.01c9.64,5.5,19.06,4.04,28.87-2.15c0,6.66,0,12.23,0,17.83
		C131.57,196.43,134.84,196.43,138.34,196.43z M155.99,43.25c-22.96,0-45.65,0-68.26,0c0,3.52,0,6.59,0,10.09
		c6.45,0,12.56,0,19.27,0c0,38.82,0,77.2,0,115.76c4.16,0,7.7,0,11.84,0c0-38.75,0-77.13,0-115.98c12.7,0,24.8,0,37.14,0
		C155.99,49.57,155.99,46.5,155.99,43.25z M117.97,196.48c0-3.92,0-7.31,0-10.66c-3.89,0-7.47,0-11.14,0c0,3.64,0,7.04,0,10.66
		C110.61,196.48,114.06,196.48,117.97,196.48z M62.37,123.47c0.91,3.57,3.32,4.82,5.58,3.28c1.83-1.24,3.5-4.13,3.51-6.3
		c0.02-2.6-1.13-5.92-2.97-7.65c-2.28-2.13-6.13,0.24-6.48,3.55c-0.49,4.64,2.51,5.79,6.63,5.7c-0.09,0.47-0.19,0.94-0.28,1.42
		C66.61,123.47,64.85,123.47,62.37,123.47z M94.48,126.34c-0.01-0.52-0.03-1.05-0.04-1.57c-1.45-0.28-2.9-0.56-3.2-0.62
		c1-3.54,2.08-6.72,2.55-9.98c0.05-0.37-3.31-1.82-5.01-1.69c-1.33,0.11-2.54,1.89-3.8,2.92c0.34,0.41,0.67,0.82,1.01,1.23
		c1.49-0.66,2.98-1.32,4.46-1.97c0.47,0.33,0.94,0.67,1.41,1c-2.36,3.53-4.72,7.05-7.15,10.69
		C88.5,126.34,91.49,126.34,94.48,126.34z M74.27,123.59c-0.3,0.34-0.6,0.67-0.91,1.01c1.82,0.9,3.62,2.44,5.46,2.49
		c1.37,0.04,3.89-1.77,3.98-2.91c0.26-3.33-0.11-6.83-0.98-10.05c-0.26-0.97-3.05-1.81-4.59-1.68c-1.22,0.1-2.31,1.77-3.45,2.74
		c0.27,0.34,0.53,0.67,0.8,1.01c1.48-0.43,2.96-0.86,5.6-1.63c-1.34,2.27-2.02,3.42-2.49,4.22c0.87,1.64,1.63,3.07,2.39,4.5
		C78.14,123.38,76.21,123.48,74.27,123.59z M55.38,126.99c0.65-0.01,1.3-0.02,1.94-0.03c0-4.87,0-9.73,0-15.87
		c-2.7,2.49-4.5,4.14-7.17,6.6c2.42,0,3.45,0,4.66,0C55.01,120.94,55.2,123.97,55.38,126.99z"/>
	<path class="st4" d="M138.34,196.43c-3.5,0-6.77,0-10.6,0c0-5.6,0-11.17,0-17.83c-9.82,6.19-19.23,7.65-28.87,2.15
		c-6.36-3.63-10.71-8.88-12.67-16.01c-4.03-14.7,2.99-27.74,17.54-31.88c0.4,4.68,1.84,8.87-3.45,12.5
		c-6.63,4.54-7.09,15.28-1.87,22.49c4.75,6.56,15.22,8.25,22.5,3.55c4.26-2.75,7.33-6.12,6.6-11.83c-0.38-2.95,0.11-6-0.14-8.98
		c-0.13-1.54-0.63-3.34-1.61-4.46c-5.02-5.7-5.09-5.64-4.1-13.56c1.72,0.57,3.38,1.13,5.58,1.86c0-26.13,0-51.98,0-78.24
		c3.89,0,7.28,0,11.1,0C138.34,102.75,138.34,149.28,138.34,196.43z"/>
	<path class="st4" d="M155.99,43.25c0,3.25,0,6.32,0,9.87c-12.34,0-24.44,0-37.14,0c0,38.85,0,77.23,0,115.98
		c-4.14,0-7.68,0-11.84,0c0-38.56,0-76.95,0-115.76c-6.71,0-12.82,0-19.27,0c0-3.49,0-6.57,0-10.09
		C110.34,43.25,133.03,43.25,155.99,43.25z"/>
	<path class="st5" d="M117.97,196.48c-3.91,0-7.35,0-11.14,0c0-3.63,0-7.02,0-10.66c3.67,0,7.25,0,11.14,0
		C117.97,189.17,117.97,192.56,117.97,196.48z"/>
	<path class="st6" d="M62.37,123.47c2.48,0,4.24,0,6,0c0.09-0.47,0.19-0.94,0.28-1.42c-4.12,0.09-7.12-1.05-6.63-5.7
		c0.35-3.32,4.19-5.69,6.48-3.55c1.84,1.72,2.99,5.05,2.97,7.65c-0.02,2.17-1.68,5.06-3.51,6.3
		C65.68,128.28,63.28,127.04,62.37,123.47z"/>
	<path class="st7" d="M94.48,126.34c-2.99,0-5.98,0-9.77,0c2.43-3.63,4.79-7.16,7.15-10.69c-0.47-0.33-0.94-0.67-1.41-1
		c-1.49,0.66-2.98,1.32-4.46,1.97c-0.34-0.41-0.67-0.82-1.01-1.23c1.26-1.04,2.46-2.82,3.8-2.92c1.7-0.13,5.06,1.32,5.01,1.69
		c-0.48,3.27-1.56,6.45-2.55,9.98c0.3,0.06,1.75,0.34,3.2,0.62C94.45,125.29,94.47,125.82,94.48,126.34z"/>
	<path class="st8" d="M74.27,123.59c1.94-0.1,3.87-0.21,5.81-0.31c-0.76-1.43-1.52-2.86-2.39-4.5c0.47-0.8,1.15-1.95,2.49-4.22
		c-2.64,0.77-4.12,1.2-5.6,1.63c-0.27-0.34-0.53-0.67-0.8-1.01c1.15-0.97,2.24-2.65,3.45-2.74c1.55-0.12,4.33,0.72,4.59,1.68
		c0.87,3.23,1.24,6.72,0.98,10.05c-0.09,1.14-2.61,2.95-3.98,2.91c-1.84-0.05-3.64-1.59-5.46-2.49
		C73.67,124.26,73.97,123.92,74.27,123.59z"/>
	<path class="st9" d="M55.38,126.99c-0.18-3.03-0.37-6.06-0.57-9.3c-1.21,0-2.24,0-4.66,0c2.67-2.46,4.47-4.12,7.17-6.6
		c0,6.13,0,11,0,15.87C56.68,126.97,56.03,126.98,55.38,126.99z"/>
</g>
</svg>
